# xmcd
#
# Track frame offsets: 
#        182
#        14400
#        28667
#        41425
#        55370
#        70625
#        85392
#        98887
#        112390
#        124662
#        137885
#        149440
#        162325
#        176582
#        189375
#        204062
#        217872
#        229672
#
# Disc length: 3234 seconds
#
# Revision: 9
# Processed by: cddbd v1.5.2PL0 Copyright (c) Steve Scherf et al.
# Submitted via: ExactAudioCopy v1.0b6
#
DISCID=fd0ca012
DTITLE=The R&B Box - The R&B Box: 30 Years of Rhythm and Blues [Jumpin' 
DTITLE=The Blues 1943-1950] Disc 1
DYEAR=1994
DGENRE=Rhythm and Blues
TTITLE0=Louis Jordan and His Tympany Five - Five Guys Name Moe (1943)
TTITLE1=Buddy Johnson and His Orchestra - When My Man Comes Home (1944)
TTITLE2=Illinois Jacquet and His All Stars - Flying Home, Part 1 (1945
TTITLE2=)
TTITLE3=Joe Liggins and His Honeydrippers - The Honeydrippers (1945)
TTITLE4=Lionel Hampton and His Orchestra - Hey Bop-Ba-Re-Bop (1946)
TTITLE5=Johnny Moore's Three Blazers - Drifting Blues (1946)
TTITLE6=Roy Milton and His Solid Senders - R.M. Blues (1946)
TTITLE7=The Ravens - Ol' Man River (1947)
TTITLE8=Julia Lee and Her Boyfriends - King Size Papa (1948)
TTITLE9=Nellie Lutcher - Fine Brown Frame (1948)
TTITLE10=Mabel Scott - Elevator Boogie (1948)
TTITLE11=Amos Milburn - Chicken Shack Boogie (1948)
TTITLE12=Paul Williams - The Huckle-Buck (1949)
TTITLE13=Big Jay McNeeley's Blue Jays - The Deacon's Hop (1949)
TTITLE14=Stick McGhee and His Buddies - Drink Wine, Spo-Dee-O-Dee (1949)
TTITLE15=Dinah Washington - Baby Get Lost (1949)
TTITLE16=Johnny Otis Orchestra - Cupid Boogie (1950)
TTITLE17=Percy Mayfield and Orchestra - Please Send Me Sombody to Love
TTITLE17=(1950)
EXTD=YEAR: 1994
EXTT0=
EXTT1=
EXTT2=
EXTT3=
EXTT4=
EXTT5=
EXTT6=
EXTT7=
EXTT8=
EXTT9=
EXTT10=
EXTT11=
EXTT12=
EXTT13=
EXTT14=
EXTT15=
EXTT16=
EXTT17=
PLAYORDER=
